<?xml version="1.0" encoding="UTF-8"?>
<!-- Generator: Adobe Illustrator 24.0.0, SVG Export Plug-In . SVG Version: 6.00 Build 0)  -->
<svg version="1.1" id="Ebene_1" xmlns="http://www.w3.org/2000/svg" xmlns:xlink="http://www.w3.org/1999/xlink" x="0px" y="0px" viewBox="0 0 360.35 167.24" style="enable-background:new 0 0 360.35 167.24;" xml:space="preserve">
<style type="text/css">
	.st0{fill:#244A9A;}
	.st1{fill:#C6C6C6;}
	.st2{fill:#EF7D0E;}
</style>
<path class="st0" d="M10.66,164.61c-1.96-0.66-3.67-1.73-5.15-3.21c-1.47-1.47-2.63-3.41-3.47-5.82c-0.84-2.41-1.27-5.35-1.27-8.84  c0-3.48,0.42-6.43,1.27-8.84c0.84-2.41,2-4.35,3.47-5.82c1.47-1.47,3.19-2.54,5.15-3.21c1.96-0.66,4.05-1,6.28-1h14.01v6.47H18.01  c-1.33,0-2.59,0.2-3.77,0.59c-1.19,0.4-2.22,1.07-3.1,2.02c-0.88,0.95-1.57,2.22-2.07,3.8c-0.5,1.58-0.75,3.57-0.75,5.98  c0,2.41,0.25,4.4,0.75,5.98c0.5,1.58,1.19,2.85,2.07,3.8c0.88,0.95,1.91,1.63,3.1,2.02c1.19,0.4,2.44,0.59,3.77,0.59h12.93v6.47  H16.94C14.71,165.6,12.62,165.27,10.66,164.61z"/>
<path class="st0" d="M36.33,127.89h7.54v22.63c0,1.65,0.25,3.03,0.75,4.12c0.5,1.1,1.19,1.98,2.07,2.64  c0.88,0.67,1.91,1.14,3.1,1.43c1.19,0.29,2.44,0.43,3.77,0.43h9.7v6.47h-9.7c-2.37,0-4.6-0.25-6.68-0.75  c-2.08-0.5-3.91-1.35-5.47-2.53c-1.56-1.18-2.8-2.74-3.72-4.66c-0.92-1.92-1.37-4.3-1.37-7.14V127.89z"/>
<path class="st0" d="M65.32,146.75c0-3.63,0.48-6.7,1.43-9.21c0.95-2.51,2.25-4.54,3.91-6.09c1.65-1.54,3.59-2.66,5.82-3.34  c2.23-0.68,4.61-1.02,7.17-1.02c2.48,0,4.83,0.34,7.06,1.02c2.23,0.68,4.18,1.8,5.85,3.34c1.67,1.54,2.99,3.57,3.96,6.09  c0.97,2.51,1.45,5.59,1.45,9.21c0,3.63-0.49,6.7-1.45,9.21c-0.97,2.51-2.29,4.54-3.96,6.09c-1.67,1.54-3.62,2.66-5.85,3.34  c-2.23,0.68-4.58,1.02-7.06,1.02c-2.55,0-4.94-0.34-7.17-1.02c-2.23-0.68-4.17-1.8-5.82-3.34c-1.65-1.54-2.96-3.57-3.91-6.09  C65.79,153.45,65.32,150.37,65.32,146.75z M83.63,159.95c1.47,0,2.86-0.21,4.18-0.62c1.31-0.41,2.45-1.12,3.42-2.13  c0.97-1,1.74-2.36,2.32-4.07c0.57-1.71,0.86-3.83,0.86-6.38c0-2.55-0.29-4.68-0.86-6.38c-0.58-1.71-1.35-3.06-2.32-4.07  c-0.97-1.01-2.11-1.71-3.42-2.13c-1.31-0.41-2.7-0.62-4.18-0.62c-1.51,0-2.92,0.21-4.23,0.62c-1.31,0.41-2.45,1.12-3.42,2.13  c-0.97,1.01-1.73,2.36-2.29,4.07c-0.56,1.71-0.83,3.83-0.83,6.38c0,2.55,0.28,4.68,0.83,6.38c0.56,1.71,1.32,3.06,2.29,4.07  c0.97,1.01,2.11,1.72,3.42,2.13C80.71,159.74,82.12,159.95,83.63,159.95z"/>
<path class="st0" d="M106.26,127.89h7.54v22.09c0,1.9,0.25,3.49,0.75,4.77c0.5,1.28,1.19,2.3,2.07,3.07  c0.88,0.77,1.9,1.32,3.07,1.64c1.17,0.32,2.43,0.49,3.8,0.49c1.33,0,2.58-0.16,3.74-0.49c1.17-0.32,2.19-0.87,3.07-1.64  c0.88-0.77,1.58-1.8,2.1-3.07c0.52-1.27,0.78-2.86,0.78-4.77v-22.09h7.54v22.09c0,3.12-0.46,5.74-1.37,7.84  c-0.92,2.1-2.15,3.79-3.72,5.06c-1.56,1.28-3.39,2.18-5.47,2.72c-2.08,0.54-4.31,0.81-6.68,0.81s-4.61-0.27-6.71-0.81  c-2.1-0.54-3.93-1.45-5.5-2.72c-1.56-1.27-2.79-2.96-3.69-5.06c-0.9-2.1-1.35-4.71-1.35-7.84V127.89z"/>
<path class="st0" d="M146.67,127.89h18.32c2.23,0,4.32,0.33,6.28,1c1.96,0.67,3.67,1.73,5.15,3.21c1.47,1.47,2.63,3.41,3.48,5.82  c0.84,2.41,1.27,5.35,1.27,8.84c0,3.48-0.42,6.43-1.27,8.84c-0.84,2.41-2,4.35-3.48,5.82c-1.47,1.47-3.19,2.54-5.15,3.21  c-1.96,0.67-4.05,1-6.28,1h-18.32V127.89z M163.91,159.14c1.33,0,2.59-0.2,3.77-0.59c1.19-0.39,2.22-1.07,3.1-2.02  c0.88-0.95,1.57-2.22,2.07-3.8c0.5-1.58,0.75-3.57,0.75-5.98c0-2.41-0.25-4.4-0.75-5.98c-0.5-1.58-1.19-2.85-2.07-3.8  c-0.88-0.95-1.91-1.62-3.1-2.02c-1.18-0.4-2.44-0.59-3.77-0.59h-9.7v24.78H163.91z"/>
<path class="st1" d="M194.27,164.61c-1.96-0.66-3.67-1.73-5.15-3.21c-1.47-1.47-2.63-3.41-3.47-5.82c-0.84-2.41-1.27-5.35-1.27-8.84  c0-3.48,0.42-6.43,1.27-8.84c0.84-2.41,2-4.35,3.47-5.82c1.47-1.47,3.19-2.54,5.15-3.21c1.96-0.66,4.05-1,6.28-1h14.01v6.47h-12.93  c-1.18,0-2.3,0.15-3.34,0.46c-1.04,0.31-1.98,0.81-2.83,1.51c-0.84,0.7-1.56,1.63-2.15,2.8c-0.59,1.17-1,2.63-1.21,4.39h22.47v6.46  h-22.47c0.22,1.76,0.62,3.22,1.21,4.39c0.59,1.17,1.31,2.1,2.15,2.8c0.84,0.7,1.79,1.2,2.83,1.51c1.04,0.31,2.16,0.46,3.34,0.46  h12.93v6.47h-14.01C198.31,165.6,196.22,165.27,194.27,164.61z"/>
<path class="st1" d="M231.04,134.36h-13.47v-6.47h34.48v6.47h-13.47v31.25h-7.54V134.36z"/>
<path class="st1" d="M263.33,164.61c-1.96-0.66-3.67-1.73-5.15-3.21c-1.47-1.47-2.63-3.41-3.47-5.82c-0.84-2.41-1.27-5.35-1.27-8.84  c0-3.48,0.42-6.43,1.27-8.84c0.84-2.41,2-4.35,3.47-5.82c1.47-1.47,3.19-2.54,5.15-3.21c1.96-0.66,4.05-1,6.28-1h14.01v6.47h-12.93  c-1.18,0-2.3,0.15-3.34,0.46c-1.04,0.31-1.98,0.81-2.83,1.51c-0.84,0.7-1.56,1.63-2.15,2.8c-0.59,1.17-1,2.63-1.21,4.39h22.47v6.46  h-22.47c0.22,1.76,0.62,3.22,1.21,4.39c0.59,1.17,1.31,2.1,2.15,2.8c0.84,0.7,1.79,1.2,2.83,1.51c1.04,0.31,2.16,0.46,3.34,0.46  h12.93v6.47h-14.01C267.38,165.6,265.29,165.27,263.33,164.61z"/>
<path class="st1" d="M298.35,164.61c-1.96-0.66-3.67-1.73-5.15-3.21c-1.47-1.47-2.63-3.41-3.47-5.82c-0.84-2.41-1.27-5.35-1.27-8.84  c0-3.48,0.42-6.43,1.27-8.84c0.84-2.41,2-4.35,3.47-5.82c1.47-1.47,3.19-2.54,5.15-3.21c1.96-0.66,4.05-1,6.28-1h14.01v6.47h-12.93  c-1.18,0-2.3,0.15-3.34,0.46c-1.04,0.31-1.98,0.81-2.83,1.51c-0.84,0.7-1.56,1.63-2.15,2.8c-0.59,1.17-1,2.63-1.21,4.39h22.47v6.46  h-22.47c0.22,1.76,0.62,3.22,1.21,4.39c0.59,1.17,1.31,2.1,2.15,2.8c0.84,0.7,1.79,1.2,2.83,1.51c1.04,0.31,2.16,0.46,3.34,0.46  h12.93v6.47h-14.01C302.4,165.6,300.31,165.27,298.35,164.61z"/>
<path class="st1" d="M325.1,127.89h22.36c1.65,0,3.21,0.2,4.69,0.59c1.47,0.4,2.77,1.03,3.88,1.91c1.11,0.88,1.98,2.05,2.61,3.5  c0.63,1.45,0.94,3.22,0.94,5.31c0,1.83-0.22,3.42-0.65,4.77c-0.43,1.35-1.03,2.49-1.8,3.42c-0.77,0.93-1.69,1.67-2.75,2.21  c-1.06,0.54-2.2,0.93-3.42,1.18l8.57,14.82h-8.73l-7.97-14.55h-10.18v14.55h-7.54V127.89z M347.46,144.59  c1.26,0,2.33-0.39,3.23-1.16c0.9-0.77,1.35-2.18,1.35-4.23c0-1.8-0.45-3.05-1.35-3.77c-0.9-0.72-1.98-1.08-3.23-1.08h-14.82v10.24  H347.46z"/>
<path class="st2" d="M182.5,93.29"/>
<g>
	<path class="st1" d="M243.31,12.25l-4.48,9.44c11.67,4.34,19.98,15.58,19.98,28.76c0,16.94-13.73,30.68-30.68,30.68   c-3.73,0-7.29-0.67-10.59-1.89c-0.48-0.18-0.96-0.37-1.43-0.57c-0.22-0.09-0.44-0.19-0.66-0.29c-0.44-0.2-0.87-0.41-1.29-0.63   c-0.23-0.12-0.46-0.24-0.68-0.36c-0.41-0.23-0.82-0.46-1.22-0.7c-0.22-0.13-0.44-0.28-0.65-0.41c-0.3-0.19-0.59-0.39-0.88-0.59   c-0.13-0.09-0.27-0.18-0.4-0.27c0,0,0,0,0,0.01c-0.02-0.01-0.03-0.02-0.05-0.03c-0.48,0.7-0.98,1.37-1.49,2.04   c-1.99,2.47-4.18,4.81-5.27,5.94c0,0,0.01,0,0.01,0.01c-12.16,11.86-29.35,17.33-46.14,12.95c-1.75-0.46-3.45-1.02-5.11-1.66   c4.51,4.04,9.86,7.04,15.9,8.61c15.64,4.09,31.91-2.32,43.26-15.26c5.1,2.28,10.76,3.55,16.71,3.55c22.7,0,41.1-18.4,41.1-41.1   C269.23,33.11,258.49,18.29,243.31,12.25z"/>
</g>
<g>
	<polygon class="st0" points="210.22,58.79 210.23,58.79 210.18,58.75  "/>
	<polygon class="st0" points="182.88,33.21 182.85,33.17 182.84,33.17  "/>
	<path class="st0" d="M214.8,35.54c3.68-2.12,7.25-4.92,10.66-8.57c7.57-8.09,11.92-17.66,12.76-26.38   c-8.65,1.41-17.91,6.39-25.48,14.48c-3.41,3.65-5.98,7.39-7.84,11.21l-16.32-0.08l-6.51,6.95l14.23,1.72c0,0,0.69,2.99-3.7,6.89   l7.55,7.06c3.6-4.63,6.63-4.15,6.63-4.15l2.67,14.09l6.51-6.95L214.8,35.54z"/>
</g>
<path class="st0" d="M186.48,48.74c-1.06,1.18-13.21,14.6-17.63,18.57c-7.67,6.89-16.97,12.44-20.13,13.71  c-3.49,1.4-7.34,2.44-11.32,2.78c-0.85,0.11-1.53,0.16-2.01,0.17c-6.53,0.23-12.69-1.76-17.81-5.27c-0.04-0.03-0.09-0.06-0.13-0.09  c-0.28-0.2-0.57-0.39-0.84-0.6c-4.33-3.17-7.79-7.44-9.98-12.41c-0.06-0.13-0.12-0.26-0.18-0.4c-0.01-0.03-0.03-0.07-0.04-0.1  c-1.57-3.67-2.45-7.68-2.45-11.84c0.01-9.94,4.75-18.76,12.08-24.36c5.17-3.97,11.64-6.34,18.66-6.34c7.04,0,13.52,2.38,18.7,6.37  c0.05-0.07,0.1-0.13,0.16-0.2c13.18-18.52,35.68-27.03,55.35-19.36c-4.13-3.31-8.88-5.79-14.17-7.18  c-15.17-3.98-30.95,1.92-42.25,14.08c-5.39-2.61-11.43-4.08-17.81-4.09c-22.7-0.02-41.12,18.36-41.14,41.06  c-0.02,22.49,18.03,40.76,40.44,41.12c13.84,0.28,26.17-6.94,34.49-13.14c8.23-6.14,22.99-22.49,25.51-25.31  c-3.33,1.22-6.39,1.97-9,2.14C184.9,55.61,185.43,52.4,186.48,48.74z"/>
</svg>